<mxfile host="app.diagrams.net" modified="2022-06-15T10:30:16.391Z" agent="5.0 (Windows NT 10.0; Win64; x64) AppleWebKit/537.36 (KHTML, like Gecko) Chrome/102.0.5005.63 Safari/537.36 Edg/102.0.1245.39" etag="Xz4dm6mJCi-kizmFt8UU" version="20.0.1" type="github">
  <diagram id="B2qu3FUtrVb9msVc1AnQ" name="Page-1">
    <mxGraphModel dx="1422" dy="794" grid="1" gridSize="10" guides="1" tooltips="1" connect="1" arrows="1" fold="1" page="1" pageScale="1" pageWidth="827" pageHeight="1169" math="0" shadow="0">
      <root>
        <mxCell id="0" />
        <mxCell id="1" parent="0" />
        <mxCell id="kbAWjnEH0wDHKWn-UZGj-3" value="" style="edgeStyle=orthogonalEdgeStyle;rounded=0;orthogonalLoop=1;jettySize=auto;html=1;" parent="1" source="kbAWjnEH0wDHKWn-UZGj-1" target="kbAWjnEH0wDHKWn-UZGj-2" edge="1">
          <mxGeometry relative="1" as="geometry" />
        </mxCell>
        <mxCell id="kbAWjnEH0wDHKWn-UZGj-1" value="本地化" style="whiteSpace=wrap;html=1;" parent="1" vertex="1">
          <mxGeometry x="160" y="270" width="120" height="60" as="geometry" />
        </mxCell>
        <mxCell id="st0g1QOFJ_KbZ5y8CNtc-2" value="" style="edgeStyle=orthogonalEdgeStyle;rounded=0;orthogonalLoop=1;jettySize=auto;html=1;" edge="1" parent="1" source="kbAWjnEH0wDHKWn-UZGj-2" target="st0g1QOFJ_KbZ5y8CNtc-1">
          <mxGeometry relative="1" as="geometry" />
        </mxCell>
        <mxCell id="st0g1QOFJ_KbZ5y8CNtc-4" value="" style="edgeStyle=orthogonalEdgeStyle;rounded=0;orthogonalLoop=1;jettySize=auto;html=1;" edge="1" parent="1" source="kbAWjnEH0wDHKWn-UZGj-2" target="st0g1QOFJ_KbZ5y8CNtc-3">
          <mxGeometry relative="1" as="geometry" />
        </mxCell>
        <mxCell id="kbAWjnEH0wDHKWn-UZGj-2" value="读取配置" style="rhombus;whiteSpace=wrap;html=1;" parent="1" vertex="1">
          <mxGeometry x="180" y="400" width="80" height="80" as="geometry" />
        </mxCell>
        <mxCell id="st0g1QOFJ_KbZ5y8CNtc-1" value="本地化" style="whiteSpace=wrap;html=1;" vertex="1" parent="1">
          <mxGeometry x="320" y="410" width="120" height="60" as="geometry" />
        </mxCell>
        <mxCell id="st0g1QOFJ_KbZ5y8CNtc-3" value="" style="whiteSpace=wrap;html=1;" vertex="1" parent="1">
          <mxGeometry x="160" y="570" width="120" height="60" as="geometry" />
        </mxCell>
        <mxCell id="st0g1QOFJ_KbZ5y8CNtc-6" value="是否自定义" style="text;html=1;align=center;verticalAlign=middle;resizable=0;points=[];autosize=1;strokeColor=none;fillColor=none;" vertex="1" parent="1">
          <mxGeometry x="220" y="350" width="80" height="20" as="geometry" />
        </mxCell>
      </root>
    </mxGraphModel>
  </diagram>
</mxfile>
